<svg xmlns="http://www.w3.org/2000/svg" width="512" height="106" viewBox="0 0 512 106">
    <path d="M20.9,31v9.4h0.2c2.5-3.6,5.5-6.4,9.1-8.3c3.6-2,7.6-2.9,12.3-2.9c4.4,0,8.4,0.9,12,2.6c3.6,1.7,6.4,4.7,8.3,9
	c2-3,4.8-5.7,8.4-8.1c3.6-2.4,7.8-3.5,12.6-3.5c3.7,0,7.1,0.4,10.2,1.3c3.1,0.9,5.8,2.4,8.1,4.3c2.2,2,4,4.6,5.3,7.8
	c1.2,3.1,1.9,7.1,1.9,11.6v46.7H90.3V61.3c0-2.4-0.1-4.5-0.2-6.6c-0.2-2-0.7-3.8-1.5-5.4c-0.8-1.6-2-2.7-3.6-3.6
	c-1.6-0.9-3.7-1.3-6.4-1.3c-2.7,0-4.8,0.6-6.5,1.6c-1.7,1-2.9,2.4-3.9,4c-0.9,1.7-1.6,3.6-1.9,5.6c-0.3,2.1-0.4,4.3-0.4,6.4v38.9
	H46.7V61.7c0-2,0-4.2-0.1-6.2c-0.1-2-0.4-3.9-1.1-5.6s-1.8-3-3.4-4.2c-1.6-1-3.9-1.6-7-1.6c-0.9,0-2.1,0.2-3.6,0.6
	c-1.5,0.4-2.9,1.1-4.3,2.2c-1.3,1.1-2.6,2.7-3.6,4.8c-1,2.1-1.5,4.8-1.5,8.3v40.5H3V30.9h17.9V31z"/>
    <path d="M125,50.8c1.7-4.5,4.2-8.4,7.3-11.6s7-5.6,11.4-7.4c4.4-1.8,9.3-2.6,14.8-2.6s10.5,0.9,15,2.6
	c4.5,1.8,8.2,4.3,11.4,7.4s5.6,7.1,7.3,11.6s2.6,9.6,2.6,15.2c0,5.6-0.9,10.6-2.6,15.1s-4.2,8.3-7.3,11.6c-3.1,3.1-7,5.6-11.4,7.3
	c-4.4,1.7-9.4,2.6-15,2.6c-5.5,0-10.5-0.9-14.8-2.6c-4.4-1.7-8.2-4.2-11.4-7.3c-3.1-3.1-5.6-7.1-7.3-11.6c-1.7-4.5-2.6-9.6-2.6-15.1
	C122.5,60.4,123.3,55.3,125,50.8z M142.4,74.2c0.6,2.7,1.5,5.1,2.8,7.2c1.3,2.1,3,3.8,5.2,5.1c2.1,1.2,4.8,1.9,8.1,1.9
	s6-0.7,8.2-1.9c2.2-1.2,3.9-2.9,5.3-5.1c1.3-2.1,2.2-4.5,2.8-7.2c0.6-2.7,0.8-5.4,0.8-8.2c0-2.8-0.2-5.5-0.8-8.2
	c-0.6-2.7-1.5-5.1-2.8-7.2c-1.3-2-3-3.7-5.3-5.1c-2.2-1.3-4.9-1.9-8.2-1.9s-6,0.7-8.1,1.9c-2.1,1.3-3.9,3-5.2,5.1
	c-1.3,2-2.2,4.5-2.8,7.2s-0.8,5.4-0.8,8.2C141.6,68.8,141.8,71.5,142.4,74.2z"/>
    <path d="M225.3,31v9.7h0.4c2.5-4,5.6-7,9.4-8.9c3.8-1.8,7.9-2.8,11.9-2.8c5.2,0,9.3,0.7,12.6,2.1
	c3.3,1.3,5.8,3.4,7.8,5.8c1.9,2.5,3.3,5.5,3.9,9c0.8,3.6,1.1,7.5,1.1,11.8v43h-19.1V61.4c0-5.7-0.9-10-2.7-12.9
	c-1.8-2.8-4.9-4.3-9.6-4.3c-5.2,0-9,1.6-11.4,4.6c-2.4,3.1-3.5,8.2-3.5,15.3v36.6h-19.1V30.9h18.1V31z"/>
    <path d="M287.6,20.2V4.5h19.1v15.7H287.6z M306.8,31v69.7h-19.1V31H306.8z"/>
    <path d="M369.1,100.8v-9.7h-0.4c-2.5,4-5.6,7-9.4,8.8c-3.8,1.8-7.9,2.7-11.9,2.7c-5.2,0-9.3-0.7-12.6-2
	c-3.3-1.3-5.8-3.3-7.8-5.7c-1.9-2.5-3.3-5.5-3.9-9c-0.8-3.6-1.1-7.5-1.1-11.8v-43H341v39.4c0,5.7,0.9,10,2.7,12.9
	c1.8,2.8,4.9,4.3,9.6,4.3c5.2,0,9-1.6,11.4-4.6c2.4-3.1,3.5-8.2,3.5-15.3V31.2h19.1V101h-18.1V100.8z"/>
    <path d="M420.5,31v9.4h0.2c2.5-3.6,5.5-6.4,9.1-8.3c3.6-2,7.6-2.9,12.3-2.9c4.4,0,8.4,0.9,12,2.6c3.6,1.7,6.4,4.7,8.3,9
	c2-3,4.8-5.7,8.4-8.1c3.6-2.4,7.8-3.5,12.6-3.5c3.7,0,7.1,0.4,10.2,1.3c3.1,0.9,5.8,2.4,8.1,4.3c2.2,2,4,4.6,5.3,7.8
	c1.2,3.1,1.9,7.1,1.9,11.6v46.7h-19.1V61.3c0-2.4-0.1-4.5-0.2-6.6c-0.2-2-0.7-3.8-1.5-5.4c-0.8-1.6-2-2.7-3.6-3.6
	c-1.6-0.9-3.7-1.3-6.4-1.3c-2.7,0-4.8,0.6-6.5,1.6c-1.7,1-2.9,2.4-3.9,4c-0.9,1.7-1.6,3.6-1.9,5.6c-0.3,2.1-0.4,4.3-0.4,6.4v38.9
	h-19.1V61.7c0-2,0-4.2-0.1-6.2c-0.1-2-0.4-3.9-1.1-5.6c-0.7-1.7-1.8-3-3.4-4.2c-1.6-1-3.9-1.6-7-1.6c-0.9,0-2.1,0.2-3.6,0.6
	c-1.5,0.4-2.9,1.1-4.3,2.2c-1.3,1.1-2.6,2.7-3.6,4.8c-1,2.1-1.5,4.8-1.5,8.3v40.5h-19.1V30.9h17.9V31z"/>
</svg>
