<svg xmlns="http://www.w3.org/2000/svg" width="512" height="512" viewBox="0 0 512 512">
    <path class="mo-symbol-path" d="M113.2,108.9v36.7h1c9.8-14,21.6-24.8,35.4-32.5c13.8-7.7,29.6-11.5,47.4-11.5c17.1,0,32.7,3.3,46.9,10
		c14.2,6.6,24.9,18.3,32.2,35.1c8-11.9,19-22.3,32.7-31.4c13.8-9.1,30.1-13.6,49-13.6c14.3,0,27.6,1.8,39.8,5.2
		c12.2,3.5,22.7,9.1,31.4,16.8c8.7,7.7,15.5,17.7,20.4,30.1c4.9,12.4,7.3,27.3,7.3,44.8v181.3h-74.4V226.3c0-9.1-0.4-17.6-1-25.7
		c-0.7-8-2.6-15-5.8-21c-3.1-5.9-7.8-10.7-13.9-14.1c-6.1-3.5-14.4-5.2-24.9-5.2c-10.5,0-19,2-25.4,6c-6.5,4-11.5,9.3-15.2,15.7
		c-3.7,6.5-6.1,13.8-7.3,22c-1.2,8.2-1.8,16.5-1.8,24.9v150.9h-74.4v-152c0-8-0.2-16-0.5-23.8c-0.4-7.9-1.8-15.1-4.5-21.7
		c-2.6-6.6-7-12-13.1-16c-6.1-4-15.1-6-27-6c-3.5,0-8.1,0.8-13.9,2.4c-5.8,1.6-11.4,4.5-16.8,8.9c-5.4,4.4-10,10.7-13.9,18.9
		c-3.8,8.2-5.8,19-5.8,32.2v157.2H43V108.9H113.2z"/>
</svg>